<mxfile host="app.diagrams.net" agent="Mozilla/5.0 (Macintosh; Intel Mac OS X 10_15_7) AppleWebKit/537.36 (KHTML, like Gecko) Chrome/133.0.0.0 Safari/537.36" version="26.1.0">
  <diagram name="Page-1" id="XL4lFxy5ZV9v3P2EhxaI">
    <mxGraphModel dx="954" dy="639" grid="1" gridSize="10" guides="1" tooltips="1" connect="1" arrows="1" fold="1" page="1" pageScale="1" pageWidth="850" pageHeight="1100" math="0" shadow="0">
      <root>
        <mxCell id="0" />
        <mxCell id="1" parent="0" />
        <mxCell id="CYr102QweYvh8LQwzMkh-2" value="" style="rounded=0;whiteSpace=wrap;html=1;fillColor=none;" vertex="1" parent="1">
          <mxGeometry x="50" y="1150" width="250" height="270" as="geometry" />
        </mxCell>
        <mxCell id="Py0wytBRtGCR2t7zerMG-21" value="" style="rounded=0;whiteSpace=wrap;html=1;fillColor=none;" parent="1" vertex="1">
          <mxGeometry x="180" y="560" width="230" height="350" as="geometry" />
        </mxCell>
        <mxCell id="Py0wytBRtGCR2t7zerMG-43" value="" style="rounded=0;whiteSpace=wrap;html=1;fillColor=none;" parent="1" vertex="1">
          <mxGeometry x="410" y="560" width="230" height="350" as="geometry" />
        </mxCell>
        <mxCell id="QZdih2ebxLKBsNfEhEfn-3" value="" style="rounded=0;whiteSpace=wrap;html=1;fillColor=none;" parent="1" vertex="1">
          <mxGeometry x="270" y="50" width="300" height="350" as="geometry" />
        </mxCell>
        <mxCell id="Py0wytBRtGCR2t7zerMG-14" value="&lt;b&gt;Secret&lt;/b&gt;" style="text;html=1;align=center;verticalAlign=middle;whiteSpace=wrap;rounded=0;" parent="1" vertex="1">
          <mxGeometry x="270" y="110" width="65" height="30" as="geometry" />
        </mxCell>
        <mxCell id="QZdih2ebxLKBsNfEhEfn-5" value="" style="rounded=0;whiteSpace=wrap;html=1;fillColor=none;" parent="1" vertex="1">
          <mxGeometry x="50" y="90" width="80" height="120" as="geometry" />
        </mxCell>
        <mxCell id="QZdih2ebxLKBsNfEhEfn-2" value="" style="aspect=fixed;sketch=0;html=1;dashed=0;whitespace=wrap;verticalLabelPosition=bottom;verticalAlign=top;fillColor=#2875E2;strokeColor=#ffffff;points=[[0.005,0.63,0],[0.1,0.2,0],[0.9,0.2,0],[0.5,0,0],[0.995,0.63,0],[0.72,0.99,0],[0.5,1,0],[0.28,0.99,0]];shape=mxgraph.kubernetes.icon2;kubernetesLabel=1;prIcon=node" parent="1" vertex="1">
          <mxGeometry x="387.91999999999996" y="410" width="52.08" height="50" as="geometry" />
        </mxCell>
        <mxCell id="QZdih2ebxLKBsNfEhEfn-4" value="" style="image;sketch=0;aspect=fixed;html=1;points=[];align=center;fontSize=12;image=img/lib/mscae/Docker.svg;" parent="1" vertex="1">
          <mxGeometry x="60" y="150" width="50" height="41" as="geometry" />
        </mxCell>
        <mxCell id="QZdih2ebxLKBsNfEhEfn-6" value="&lt;b&gt;my-app&lt;/b&gt;" style="text;html=1;align=center;verticalAlign=middle;whiteSpace=wrap;rounded=0;" parent="1" vertex="1">
          <mxGeometry x="60" y="100" width="60" height="30" as="geometry" />
        </mxCell>
        <mxCell id="QZdih2ebxLKBsNfEhEfn-7" value="" style="rounded=0;whiteSpace=wrap;html=1;fillColor=none;" parent="1" vertex="1">
          <mxGeometry x="360" y="80" width="80" height="120" as="geometry" />
        </mxCell>
        <mxCell id="QZdih2ebxLKBsNfEhEfn-8" value="" style="image;sketch=0;aspect=fixed;html=1;points=[];align=center;fontSize=12;image=img/lib/mscae/Docker.svg;" parent="1" vertex="1">
          <mxGeometry x="370" y="140" width="50" height="41" as="geometry" />
        </mxCell>
        <mxCell id="QZdih2ebxLKBsNfEhEfn-9" value="&lt;b&gt;my-app&lt;/b&gt;" style="text;html=1;align=center;verticalAlign=middle;whiteSpace=wrap;rounded=0;" parent="1" vertex="1">
          <mxGeometry x="370" y="90" width="60" height="30" as="geometry" />
        </mxCell>
        <mxCell id="QZdih2ebxLKBsNfEhEfn-10" value="" style="rounded=0;whiteSpace=wrap;html=1;fillColor=none;" parent="1" vertex="1">
          <mxGeometry x="360" y="250" width="80" height="120" as="geometry" />
        </mxCell>
        <mxCell id="QZdih2ebxLKBsNfEhEfn-11" value="" style="image;sketch=0;aspect=fixed;html=1;points=[];align=center;fontSize=12;image=img/lib/mscae/Docker.svg;" parent="1" vertex="1">
          <mxGeometry x="370" y="310" width="50" height="41" as="geometry" />
        </mxCell>
        <mxCell id="QZdih2ebxLKBsNfEhEfn-12" value="&lt;b&gt;DB&lt;/b&gt;" style="text;html=1;align=center;verticalAlign=middle;whiteSpace=wrap;rounded=0;" parent="1" vertex="1">
          <mxGeometry x="365" y="260" width="60" height="30" as="geometry" />
        </mxCell>
        <mxCell id="QZdih2ebxLKBsNfEhEfn-17" value="" style="aspect=fixed;sketch=0;html=1;dashed=0;whitespace=wrap;verticalLabelPosition=bottom;verticalAlign=top;fillColor=#2875E2;strokeColor=#ffffff;points=[[0.005,0.63,0],[0.1,0.2,0],[0.9,0.2,0],[0.5,0,0],[0.995,0.63,0],[0.72,0.99,0],[0.5,1,0],[0.28,0.99,0]];shape=mxgraph.kubernetes.icon2;kubernetesLabel=1;prIcon=svc" parent="1" vertex="1">
          <mxGeometry x="20" y="250" width="50" height="48" as="geometry" />
        </mxCell>
        <mxCell id="QZdih2ebxLKBsNfEhEfn-18" value="" style="aspect=fixed;sketch=0;html=1;dashed=0;whitespace=wrap;verticalLabelPosition=bottom;verticalAlign=top;fillColor=#2875E2;strokeColor=#ffffff;points=[[0.005,0.63,0],[0.1,0.2,0],[0.9,0.2,0],[0.5,0,0],[0.995,0.63,0],[0.72,0.99,0],[0.5,1,0],[0.28,0.99,0]];shape=mxgraph.kubernetes.icon2;kubernetesLabel=1;prIcon=svc" parent="1" vertex="1">
          <mxGeometry x="440" y="116" width="50" height="48" as="geometry" />
        </mxCell>
        <mxCell id="QZdih2ebxLKBsNfEhEfn-19" value="" style="aspect=fixed;sketch=0;html=1;dashed=0;whitespace=wrap;verticalLabelPosition=bottom;verticalAlign=top;fillColor=#2875E2;strokeColor=#ffffff;points=[[0.005,0.63,0],[0.1,0.2,0],[0.9,0.2,0],[0.5,0,0],[0.995,0.63,0],[0.72,0.99,0],[0.5,1,0],[0.28,0.99,0]];shape=mxgraph.kubernetes.icon2;kubernetesLabel=1;prIcon=svc" parent="1" vertex="1">
          <mxGeometry x="440" y="280" width="50" height="48" as="geometry" />
        </mxCell>
        <mxCell id="QZdih2ebxLKBsNfEhEfn-21" value="" style="endArrow=none;html=1;rounded=0;entryX=0.5;entryY=1;entryDx=0;entryDy=0;entryPerimeter=0;exitX=0.5;exitY=0;exitDx=0;exitDy=0;exitPerimeter=0;strokeWidth=4;fillColor=#dae8fc;strokeColor=#6c8ebf;" parent="1" source="QZdih2ebxLKBsNfEhEfn-19" target="QZdih2ebxLKBsNfEhEfn-18" edge="1">
          <mxGeometry width="50" height="50" relative="1" as="geometry">
            <mxPoint x="400" y="310" as="sourcePoint" />
            <mxPoint x="450" y="260" as="targetPoint" />
          </mxGeometry>
        </mxCell>
        <mxCell id="QZdih2ebxLKBsNfEhEfn-22" value="&lt;b&gt;Service&lt;/b&gt;" style="text;html=1;align=center;verticalAlign=middle;whiteSpace=wrap;rounded=0;" parent="1" vertex="1">
          <mxGeometry x="440" y="321" width="60" height="30" as="geometry" />
        </mxCell>
        <mxCell id="Py0wytBRtGCR2t7zerMG-1" value="" style="aspect=fixed;sketch=0;html=1;dashed=0;whitespace=wrap;verticalLabelPosition=bottom;verticalAlign=top;fillColor=#2875E2;strokeColor=#ffffff;points=[[0.005,0.63,0],[0.1,0.2,0],[0.9,0.2,0],[0.5,0,0],[0.995,0.63,0],[0.72,0.99,0],[0.5,1,0],[0.28,0.99,0]];shape=mxgraph.kubernetes.icon2;prIcon=cm" parent="1" vertex="1">
          <mxGeometry x="20" y="330" width="50" height="48" as="geometry" />
        </mxCell>
        <mxCell id="Py0wytBRtGCR2t7zerMG-2" value="Config Map" style="text;html=1;align=center;verticalAlign=middle;whiteSpace=wrap;rounded=0;" parent="1" vertex="1">
          <mxGeometry x="15" y="370" width="65" height="30" as="geometry" />
        </mxCell>
        <mxCell id="Py0wytBRtGCR2t7zerMG-8" style="edgeStyle=orthogonalEdgeStyle;rounded=0;orthogonalLoop=1;jettySize=auto;html=1;entryX=0.5;entryY=0;entryDx=0;entryDy=0;" parent="1" source="Py0wytBRtGCR2t7zerMG-5" target="QZdih2ebxLKBsNfEhEfn-7" edge="1">
          <mxGeometry relative="1" as="geometry">
            <Array as="points">
              <mxPoint x="400" y="60" />
            </Array>
          </mxGeometry>
        </mxCell>
        <mxCell id="Py0wytBRtGCR2t7zerMG-5" value="" style="aspect=fixed;sketch=0;html=1;dashed=0;whitespace=wrap;verticalLabelPosition=bottom;verticalAlign=top;fillColor=#2875E2;strokeColor=#ffffff;points=[[0.005,0.63,0],[0.1,0.2,0],[0.9,0.2,0],[0.5,0,0],[0.995,0.63,0],[0.72,0.99,0],[0.5,1,0],[0.28,0.99,0]];shape=mxgraph.kubernetes.icon2;prIcon=cm" parent="1" vertex="1">
          <mxGeometry x="505" y="50" width="50" height="48" as="geometry" />
        </mxCell>
        <mxCell id="Py0wytBRtGCR2t7zerMG-6" value="Config Map" style="text;html=1;align=center;verticalAlign=middle;whiteSpace=wrap;rounded=0;" parent="1" vertex="1">
          <mxGeometry x="500" y="90" width="65" height="30" as="geometry" />
        </mxCell>
        <mxCell id="Py0wytBRtGCR2t7zerMG-9" value="" style="aspect=fixed;sketch=0;html=1;dashed=0;whitespace=wrap;verticalLabelPosition=bottom;verticalAlign=top;fillColor=#2875E2;strokeColor=#ffffff;points=[[0.005,0.63,0],[0.1,0.2,0],[0.9,0.2,0],[0.5,0,0],[0.995,0.63,0],[0.72,0.99,0],[0.5,1,0],[0.28,0.99,0]];shape=mxgraph.kubernetes.icon2;prIcon=secret" parent="1" vertex="1">
          <mxGeometry x="100" y="251" width="50" height="48" as="geometry" />
        </mxCell>
        <mxCell id="Py0wytBRtGCR2t7zerMG-10" value="&lt;b&gt;Secret&lt;/b&gt;" style="text;html=1;align=center;verticalAlign=middle;whiteSpace=wrap;rounded=0;" parent="1" vertex="1">
          <mxGeometry x="92.5" y="289" width="65" height="30" as="geometry" />
        </mxCell>
        <mxCell id="Py0wytBRtGCR2t7zerMG-15" style="edgeStyle=orthogonalEdgeStyle;rounded=0;orthogonalLoop=1;jettySize=auto;html=1;" parent="1" source="Py0wytBRtGCR2t7zerMG-13" edge="1">
          <mxGeometry relative="1" as="geometry">
            <mxPoint x="390" y="80" as="targetPoint" />
            <Array as="points">
              <mxPoint x="303" y="60" />
              <mxPoint x="390" y="60" />
              <mxPoint x="390" y="80" />
            </Array>
          </mxGeometry>
        </mxCell>
        <mxCell id="Py0wytBRtGCR2t7zerMG-13" value="" style="aspect=fixed;sketch=0;html=1;dashed=0;whitespace=wrap;verticalLabelPosition=bottom;verticalAlign=top;fillColor=#2875E2;strokeColor=#ffffff;points=[[0.005,0.63,0],[0.1,0.2,0],[0.9,0.2,0],[0.5,0,0],[0.995,0.63,0],[0.72,0.99,0],[0.5,1,0],[0.28,0.99,0]];shape=mxgraph.kubernetes.icon2;prIcon=secret" parent="1" vertex="1">
          <mxGeometry x="277.5" y="68" width="50" height="48" as="geometry" />
        </mxCell>
        <mxCell id="Py0wytBRtGCR2t7zerMG-16" value="" style="aspect=fixed;sketch=0;html=1;dashed=0;whitespace=wrap;verticalLabelPosition=bottom;verticalAlign=top;fillColor=#2875E2;strokeColor=#ffffff;points=[[0.005,0.63,0],[0.1,0.2,0],[0.9,0.2,0],[0.5,0,0],[0.995,0.63,0],[0.72,0.99,0],[0.5,1,0],[0.28,0.99,0]];shape=mxgraph.kubernetes.icon2;prIcon=pv" parent="1" vertex="1">
          <mxGeometry x="110" y="330" width="50" height="48" as="geometry" />
        </mxCell>
        <mxCell id="Py0wytBRtGCR2t7zerMG-17" value="Volume" style="text;html=1;align=center;verticalAlign=middle;whiteSpace=wrap;rounded=0;fontStyle=1" parent="1" vertex="1">
          <mxGeometry x="102.5" y="370" width="65" height="30" as="geometry" />
        </mxCell>
        <mxCell id="Py0wytBRtGCR2t7zerMG-18" value="" style="aspect=fixed;sketch=0;html=1;dashed=0;whitespace=wrap;verticalLabelPosition=bottom;verticalAlign=top;fillColor=#2875E2;strokeColor=#ffffff;points=[[0.005,0.63,0],[0.1,0.2,0],[0.9,0.2,0],[0.5,0,0],[0.995,0.63,0],[0.72,0.99,0],[0.5,1,0],[0.28,0.99,0]];shape=mxgraph.kubernetes.icon2;prIcon=pv" parent="1" vertex="1">
          <mxGeometry x="285" y="150" width="50" height="48" as="geometry" />
        </mxCell>
        <mxCell id="Py0wytBRtGCR2t7zerMG-19" value="Volume" style="text;html=1;align=center;verticalAlign=middle;whiteSpace=wrap;rounded=0;fontStyle=1" parent="1" vertex="1">
          <mxGeometry x="277.5" y="190" width="65" height="30" as="geometry" />
        </mxCell>
        <mxCell id="Py0wytBRtGCR2t7zerMG-20" style="edgeStyle=orthogonalEdgeStyle;rounded=0;orthogonalLoop=1;jettySize=auto;html=1;exitX=0.9;exitY=0.2;exitDx=0;exitDy=0;exitPerimeter=0;entryX=-0.012;entryY=0.667;entryDx=0;entryDy=0;entryPerimeter=0;" parent="1" source="Py0wytBRtGCR2t7zerMG-18" target="QZdih2ebxLKBsNfEhEfn-7" edge="1">
          <mxGeometry relative="1" as="geometry" />
        </mxCell>
        <mxCell id="Py0wytBRtGCR2t7zerMG-23" value="" style="aspect=fixed;sketch=0;html=1;dashed=0;whitespace=wrap;verticalLabelPosition=bottom;verticalAlign=top;fillColor=#2875E2;strokeColor=#ffffff;points=[[0.005,0.63,0],[0.1,0.2,0],[0.9,0.2,0],[0.5,0,0],[0.995,0.63,0],[0.72,0.99,0],[0.5,1,0],[0.28,0.99,0]];shape=mxgraph.kubernetes.icon2;kubernetesLabel=1;prIcon=node" parent="1" vertex="1">
          <mxGeometry x="297.91999999999996" y="920" width="52.08" height="50" as="geometry" />
        </mxCell>
        <mxCell id="Py0wytBRtGCR2t7zerMG-24" value="" style="rounded=0;whiteSpace=wrap;html=1;fillColor=none;" parent="1" vertex="1">
          <mxGeometry x="270" y="590" width="80" height="120" as="geometry" />
        </mxCell>
        <mxCell id="Py0wytBRtGCR2t7zerMG-25" value="" style="image;sketch=0;aspect=fixed;html=1;points=[];align=center;fontSize=12;image=img/lib/mscae/Docker.svg;" parent="1" vertex="1">
          <mxGeometry x="280" y="650" width="50" height="41" as="geometry" />
        </mxCell>
        <mxCell id="Py0wytBRtGCR2t7zerMG-26" value="&lt;b&gt;my-app&lt;/b&gt;" style="text;html=1;align=center;verticalAlign=middle;whiteSpace=wrap;rounded=0;" parent="1" vertex="1">
          <mxGeometry x="280" y="600" width="60" height="30" as="geometry" />
        </mxCell>
        <mxCell id="Py0wytBRtGCR2t7zerMG-27" value="" style="rounded=0;whiteSpace=wrap;html=1;fillColor=none;" parent="1" vertex="1">
          <mxGeometry x="270" y="760" width="80" height="120" as="geometry" />
        </mxCell>
        <mxCell id="Py0wytBRtGCR2t7zerMG-28" value="" style="image;sketch=0;aspect=fixed;html=1;points=[];align=center;fontSize=12;image=img/lib/mscae/Docker.svg;" parent="1" vertex="1">
          <mxGeometry x="280" y="820" width="50" height="41" as="geometry" />
        </mxCell>
        <mxCell id="Py0wytBRtGCR2t7zerMG-29" value="&lt;b&gt;DB&lt;/b&gt;" style="text;html=1;align=center;verticalAlign=middle;whiteSpace=wrap;rounded=0;" parent="1" vertex="1">
          <mxGeometry x="275" y="770" width="60" height="30" as="geometry" />
        </mxCell>
        <mxCell id="Py0wytBRtGCR2t7zerMG-30" value="" style="aspect=fixed;sketch=0;html=1;dashed=0;whitespace=wrap;verticalLabelPosition=bottom;verticalAlign=top;fillColor=#2875E2;strokeColor=#ffffff;points=[[0.005,0.63,0],[0.1,0.2,0],[0.9,0.2,0],[0.5,0,0],[0.995,0.63,0],[0.72,0.99,0],[0.5,1,0],[0.28,0.99,0]];shape=mxgraph.kubernetes.icon2;kubernetesLabel=1;prIcon=svc" parent="1" vertex="1">
          <mxGeometry x="388.96000000000004" y="640" width="50" height="48" as="geometry" />
        </mxCell>
        <mxCell id="Py0wytBRtGCR2t7zerMG-31" value="" style="aspect=fixed;sketch=0;html=1;dashed=0;whitespace=wrap;verticalLabelPosition=bottom;verticalAlign=top;fillColor=#2875E2;strokeColor=#ffffff;points=[[0.005,0.63,0],[0.1,0.2,0],[0.9,0.2,0],[0.5,0,0],[0.995,0.63,0],[0.72,0.99,0],[0.5,1,0],[0.28,0.99,0]];shape=mxgraph.kubernetes.icon2;kubernetesLabel=1;prIcon=svc" parent="1" vertex="1">
          <mxGeometry x="388.96000000000004" y="804" width="50" height="48" as="geometry" />
        </mxCell>
        <mxCell id="Py0wytBRtGCR2t7zerMG-35" value="" style="aspect=fixed;sketch=0;html=1;dashed=0;whitespace=wrap;verticalLabelPosition=bottom;verticalAlign=top;fillColor=#2875E2;strokeColor=#ffffff;points=[[0.005,0.63,0],[0.1,0.2,0],[0.9,0.2,0],[0.5,0,0],[0.995,0.63,0],[0.72,0.99,0],[0.5,1,0],[0.28,0.99,0]];shape=mxgraph.kubernetes.icon2;prIcon=cm" parent="1" vertex="1">
          <mxGeometry x="190.00000000000003" y="662" width="50" height="48" as="geometry" />
        </mxCell>
        <mxCell id="Py0wytBRtGCR2t7zerMG-38" value="" style="aspect=fixed;sketch=0;html=1;dashed=0;whitespace=wrap;verticalLabelPosition=bottom;verticalAlign=top;fillColor=#2875E2;strokeColor=#ffffff;points=[[0.005,0.63,0],[0.1,0.2,0],[0.9,0.2,0],[0.5,0,0],[0.995,0.63,0],[0.72,0.99,0],[0.5,1,0],[0.28,0.99,0]];shape=mxgraph.kubernetes.icon2;prIcon=secret" parent="1" vertex="1">
          <mxGeometry x="190" y="560" width="50" height="48" as="geometry" />
        </mxCell>
        <mxCell id="Py0wytBRtGCR2t7zerMG-39" value="" style="aspect=fixed;sketch=0;html=1;dashed=0;whitespace=wrap;verticalLabelPosition=bottom;verticalAlign=top;fillColor=#2875E2;strokeColor=#ffffff;points=[[0.005,0.63,0],[0.1,0.2,0],[0.9,0.2,0],[0.5,0,0],[0.995,0.63,0],[0.72,0.99,0],[0.5,1,0],[0.28,0.99,0]];shape=mxgraph.kubernetes.icon2;prIcon=pv" parent="1" vertex="1">
          <mxGeometry x="190" y="608" width="50" height="48" as="geometry" />
        </mxCell>
        <mxCell id="Py0wytBRtGCR2t7zerMG-32" value="" style="endArrow=none;html=1;rounded=0;entryX=0.5;entryY=1;entryDx=0;entryDy=0;entryPerimeter=0;exitX=0.5;exitY=0;exitDx=0;exitDy=0;exitPerimeter=0;strokeWidth=4;fillColor=#dae8fc;strokeColor=#6c8ebf;" parent="1" source="Py0wytBRtGCR2t7zerMG-31" target="Py0wytBRtGCR2t7zerMG-30" edge="1">
          <mxGeometry width="50" height="50" relative="1" as="geometry">
            <mxPoint x="348.96000000000004" y="834" as="sourcePoint" />
            <mxPoint x="398.96000000000004" y="784" as="targetPoint" />
          </mxGeometry>
        </mxCell>
        <mxCell id="Py0wytBRtGCR2t7zerMG-42" value="" style="aspect=fixed;sketch=0;html=1;dashed=0;whitespace=wrap;verticalLabelPosition=bottom;verticalAlign=top;fillColor=#2875E2;strokeColor=#ffffff;points=[[0.005,0.63,0],[0.1,0.2,0],[0.9,0.2,0],[0.5,0,0],[0.995,0.63,0],[0.72,0.99,0],[0.5,1,0],[0.28,0.99,0]];shape=mxgraph.kubernetes.icon2;kubernetesLabel=1;prIcon=deploy" parent="1" vertex="1">
          <mxGeometry x="387.92" y="570" width="50" height="48" as="geometry" />
        </mxCell>
        <mxCell id="Py0wytBRtGCR2t7zerMG-44" value="" style="rounded=0;whiteSpace=wrap;html=1;fillColor=none;" parent="1" vertex="1">
          <mxGeometry x="500" y="590" width="80" height="120" as="geometry" />
        </mxCell>
        <mxCell id="Py0wytBRtGCR2t7zerMG-45" value="" style="image;sketch=0;aspect=fixed;html=1;points=[];align=center;fontSize=12;image=img/lib/mscae/Docker.svg;" parent="1" vertex="1">
          <mxGeometry x="510" y="650" width="50" height="41" as="geometry" />
        </mxCell>
        <mxCell id="Py0wytBRtGCR2t7zerMG-46" value="&lt;b&gt;my-app&lt;/b&gt;" style="text;html=1;align=center;verticalAlign=middle;whiteSpace=wrap;rounded=0;" parent="1" vertex="1">
          <mxGeometry x="510" y="600" width="60" height="30" as="geometry" />
        </mxCell>
        <mxCell id="Py0wytBRtGCR2t7zerMG-47" value="" style="rounded=0;whiteSpace=wrap;html=1;fillColor=none;" parent="1" vertex="1">
          <mxGeometry x="500" y="760" width="80" height="120" as="geometry" />
        </mxCell>
        <mxCell id="Py0wytBRtGCR2t7zerMG-48" value="" style="image;sketch=0;aspect=fixed;html=1;points=[];align=center;fontSize=12;image=img/lib/mscae/Docker.svg;" parent="1" vertex="1">
          <mxGeometry x="510" y="820" width="50" height="41" as="geometry" />
        </mxCell>
        <mxCell id="Py0wytBRtGCR2t7zerMG-49" value="&lt;b&gt;DB&lt;/b&gt;" style="text;html=1;align=center;verticalAlign=middle;whiteSpace=wrap;rounded=0;" parent="1" vertex="1">
          <mxGeometry x="505" y="770" width="60" height="30" as="geometry" />
        </mxCell>
        <mxCell id="Py0wytBRtGCR2t7zerMG-50" value="Stateful Set" style="rounded=0;whiteSpace=wrap;html=1;fillColor=#0050ef;fontColor=#ffffff;strokeColor=#001DBC;" parent="1" vertex="1">
          <mxGeometry x="380.42" y="861" width="65" height="30" as="geometry" />
        </mxCell>
        <mxCell id="Py0wytBRtGCR2t7zerMG-51" value="" style="endArrow=none;html=1;rounded=0;strokeWidth=6;fillColor=#0050ef;strokeColor=#001DBC;" parent="1" edge="1">
          <mxGeometry width="50" height="50" relative="1" as="geometry">
            <mxPoint x="50" y="740" as="sourcePoint" />
            <mxPoint x="100" y="690" as="targetPoint" />
          </mxGeometry>
        </mxCell>
        <mxCell id="Py0wytBRtGCR2t7zerMG-52" value="" style="endArrow=none;html=1;rounded=0;strokeWidth=6;fillColor=#0050ef;strokeColor=#001DBC;entryX=1;entryY=0.5;entryDx=0;entryDy=0;exitX=0.005;exitY=0.63;exitDx=0;exitDy=0;exitPerimeter=0;" parent="1" source="Py0wytBRtGCR2t7zerMG-30" target="Py0wytBRtGCR2t7zerMG-24" edge="1">
          <mxGeometry width="50" height="50" relative="1" as="geometry">
            <mxPoint x="60" y="750" as="sourcePoint" />
            <mxPoint x="110" y="700" as="targetPoint" />
          </mxGeometry>
        </mxCell>
        <mxCell id="Py0wytBRtGCR2t7zerMG-54" value="" style="endArrow=none;html=1;rounded=0;strokeWidth=6;fillColor=#0050ef;strokeColor=#001DBC;entryX=1.013;entryY=0.567;entryDx=0;entryDy=0;exitX=0.061;exitY=0.792;exitDx=0;exitDy=0;exitPerimeter=0;entryPerimeter=0;" parent="1" source="Py0wytBRtGCR2t7zerMG-31" target="Py0wytBRtGCR2t7zerMG-27" edge="1">
          <mxGeometry width="50" height="50" relative="1" as="geometry">
            <mxPoint x="399" y="680" as="sourcePoint" />
            <mxPoint x="360" y="660" as="targetPoint" />
          </mxGeometry>
        </mxCell>
        <mxCell id="Py0wytBRtGCR2t7zerMG-55" value="" style="endArrow=none;html=1;rounded=0;strokeWidth=6;fillColor=#0050ef;strokeColor=#001DBC;entryX=0;entryY=0.5;entryDx=0;entryDy=0;exitX=0.995;exitY=0.63;exitDx=0;exitDy=0;exitPerimeter=0;" parent="1" source="Py0wytBRtGCR2t7zerMG-30" target="Py0wytBRtGCR2t7zerMG-44" edge="1">
          <mxGeometry width="50" height="50" relative="1" as="geometry">
            <mxPoint x="60" y="750" as="sourcePoint" />
            <mxPoint x="110" y="700" as="targetPoint" />
          </mxGeometry>
        </mxCell>
        <mxCell id="Py0wytBRtGCR2t7zerMG-56" value="" style="endArrow=none;html=1;rounded=0;strokeWidth=6;fillColor=#0050ef;strokeColor=#001DBC;entryX=0;entryY=0.5;entryDx=0;entryDy=0;exitX=0.995;exitY=0.63;exitDx=0;exitDy=0;exitPerimeter=0;" parent="1" edge="1">
          <mxGeometry width="50" height="50" relative="1" as="geometry">
            <mxPoint x="440" y="840" as="sourcePoint" />
            <mxPoint x="501" y="820" as="targetPoint" />
          </mxGeometry>
        </mxCell>
        <mxCell id="CYr102QweYvh8LQwzMkh-1" value="&lt;font style=&quot;font-size: 16px;&quot;&gt;&lt;b&gt;Worker Node process&lt;/b&gt;&lt;/font&gt;" style="text;html=1;align=center;verticalAlign=middle;whiteSpace=wrap;rounded=0;" vertex="1" parent="1">
          <mxGeometry x="35" y="1110" width="250" height="30" as="geometry" />
        </mxCell>
        <mxCell id="CYr102QweYvh8LQwzMkh-3" value="" style="aspect=fixed;sketch=0;html=1;dashed=0;whitespace=wrap;verticalLabelPosition=bottom;verticalAlign=top;fillColor=#2875E2;strokeColor=#ffffff;points=[[0.005,0.63,0],[0.1,0.2,0],[0.9,0.2,0],[0.5,0,0],[0.995,0.63,0],[0.72,0.99,0],[0.5,1,0],[0.28,0.99,0]];shape=mxgraph.kubernetes.icon2;kubernetesLabel=1;prIcon=k_proxy" vertex="1" parent="1">
          <mxGeometry x="140" y="1340" width="50" height="48" as="geometry" />
        </mxCell>
        <mxCell id="CYr102QweYvh8LQwzMkh-5" value="Container Runtime" style="rounded=0;whiteSpace=wrap;html=1;fillColor=#0050ef;fontColor=#ffffff;strokeColor=#001DBC;" vertex="1" parent="1">
          <mxGeometry x="220.00000000000006" y="1349" width="65" height="30" as="geometry" />
        </mxCell>
        <mxCell id="CYr102QweYvh8LQwzMkh-6" value="" style="aspect=fixed;sketch=0;html=1;dashed=0;whitespace=wrap;verticalLabelPosition=bottom;verticalAlign=top;fillColor=#2875E2;strokeColor=#ffffff;points=[[0.005,0.63,0],[0.1,0.2,0],[0.9,0.2,0],[0.5,0,0],[0.995,0.63,0],[0.72,0.99,0],[0.5,1,0],[0.28,0.99,0]];shape=mxgraph.kubernetes.icon2;kubernetesLabel=1;prIcon=kubelet" vertex="1" parent="1">
          <mxGeometry x="60" y="1340" width="50" height="48" as="geometry" />
        </mxCell>
        <mxCell id="CYr102QweYvh8LQwzMkh-7" value="" style="aspect=fixed;sketch=0;html=1;dashed=0;whitespace=wrap;verticalLabelPosition=bottom;verticalAlign=top;fillColor=#2875E2;strokeColor=#ffffff;points=[[0.005,0.63,0],[0.1,0.2,0],[0.9,0.2,0],[0.5,0,0],[0.995,0.63,0],[0.72,0.99,0],[0.5,1,0],[0.28,0.99,0]];shape=mxgraph.kubernetes.icon2;kubernetesLabel=1;prIcon=node" vertex="1" parent="1">
          <mxGeometry x="130" y="1430" width="52.08" height="50" as="geometry" />
        </mxCell>
        <mxCell id="CYr102QweYvh8LQwzMkh-8" value="" style="aspect=fixed;sketch=0;html=1;dashed=0;whitespace=wrap;verticalLabelPosition=bottom;verticalAlign=top;fillColor=#2875E2;strokeColor=#ffffff;points=[[0.005,0.63,0],[0.1,0.2,0],[0.9,0.2,0],[0.5,0,0],[0.995,0.63,0],[0.72,0.99,0],[0.5,1,0],[0.28,0.99,0]];shape=mxgraph.kubernetes.icon2;kubernetesLabel=1;prIcon=pod" vertex="1" parent="1">
          <mxGeometry x="80" y="1261" width="50" height="48" as="geometry" />
        </mxCell>
        <mxCell id="CYr102QweYvh8LQwzMkh-10" value="" style="aspect=fixed;sketch=0;html=1;dashed=0;whitespace=wrap;verticalLabelPosition=bottom;verticalAlign=top;fillColor=#2875E2;strokeColor=#ffffff;points=[[0.005,0.63,0],[0.1,0.2,0],[0.9,0.2,0],[0.5,0,0],[0.995,0.63,0],[0.72,0.99,0],[0.5,1,0],[0.28,0.99,0]];shape=mxgraph.kubernetes.icon2;kubernetesLabel=1;prIcon=pod" vertex="1" parent="1">
          <mxGeometry x="150" y="1261" width="50" height="48" as="geometry" />
        </mxCell>
        <mxCell id="CYr102QweYvh8LQwzMkh-11" value="" style="aspect=fixed;sketch=0;html=1;dashed=0;whitespace=wrap;verticalLabelPosition=bottom;verticalAlign=top;fillColor=#2875E2;strokeColor=#ffffff;points=[[0.005,0.63,0],[0.1,0.2,0],[0.9,0.2,0],[0.5,0,0],[0.995,0.63,0],[0.72,0.99,0],[0.5,1,0],[0.28,0.99,0]];shape=mxgraph.kubernetes.icon2;kubernetesLabel=1;prIcon=pod" vertex="1" parent="1">
          <mxGeometry x="220" y="1261" width="50" height="48" as="geometry" />
        </mxCell>
        <mxCell id="CYr102QweYvh8LQwzMkh-12" value="" style="aspect=fixed;sketch=0;html=1;dashed=0;whitespace=wrap;verticalLabelPosition=bottom;verticalAlign=top;fillColor=#2875E2;strokeColor=#ffffff;points=[[0.005,0.63,0],[0.1,0.2,0],[0.9,0.2,0],[0.5,0,0],[0.995,0.63,0],[0.72,0.99,0],[0.5,1,0],[0.28,0.99,0]];shape=mxgraph.kubernetes.icon2;kubernetesLabel=1;prIcon=svc" vertex="1" parent="1">
          <mxGeometry x="155" y="1200" width="41.66" height="40" as="geometry" />
        </mxCell>
        <mxCell id="CYr102QweYvh8LQwzMkh-13" style="edgeStyle=orthogonalEdgeStyle;rounded=0;orthogonalLoop=1;jettySize=auto;html=1;entryX=0.4;entryY=0.188;entryDx=0;entryDy=0;entryPerimeter=0;" edge="1" parent="1" source="CYr102QweYvh8LQwzMkh-12" target="CYr102QweYvh8LQwzMkh-8">
          <mxGeometry relative="1" as="geometry" />
        </mxCell>
        <mxCell id="CYr102QweYvh8LQwzMkh-15" style="edgeStyle=orthogonalEdgeStyle;rounded=0;orthogonalLoop=1;jettySize=auto;html=1;entryX=0.5;entryY=0;entryDx=0;entryDy=0;entryPerimeter=0;" edge="1" parent="1" source="CYr102QweYvh8LQwzMkh-12" target="CYr102QweYvh8LQwzMkh-11">
          <mxGeometry relative="1" as="geometry" />
        </mxCell>
        <mxCell id="CYr102QweYvh8LQwzMkh-16" style="edgeStyle=orthogonalEdgeStyle;rounded=0;orthogonalLoop=1;jettySize=auto;html=1;entryX=0.5;entryY=0.188;entryDx=0;entryDy=0;entryPerimeter=0;" edge="1" parent="1" source="CYr102QweYvh8LQwzMkh-12" target="CYr102QweYvh8LQwzMkh-10">
          <mxGeometry relative="1" as="geometry" />
        </mxCell>
      </root>
    </mxGraphModel>
  </diagram>
</mxfile>
